<svg width="284" height="213" viewBox="0 0 284 213" fill="none" xmlns="http://www.w3.org/2000/svg">
<rect width="284" height="213" fill="#F5F7FA"/>
<rect width="152" height="48" transform="translate(66 82)" fill="#F5F7FA"/>
<path d="M108 96L91.9583 88.2007C91.6963 88.0733 91.3918 88.0665 91.1243 88.1821L73.0344 96L91.0813 104.774C91.3726 104.916 91.7144 104.908 91.9985 104.752L108 96Z" fill="#2B2B2B"/>
<path d="M73.0344 96L91.0813 104.774C91.3726 104.916 91.7144 104.908 91.9985 104.752L108 96L91.9583 88.2007C91.6963 88.0733 91.3918 88.0665 91.1243 88.1821L73.0344 96ZM73.0344 96C73.0344 96 72.0847 98.3916 72.006 100C71.9086 101.989 73.0344 105 73.0344 105M108 105L91.9985 113.752C91.7144 113.908 91.3726 113.916 91.0813 113.774L73.0344 105M73.0344 105C73.0344 105 72.006 108.009 72.006 110C72.006 111.991 73.0344 115 73.0344 115L91.0813 123.774C91.3726 123.916 91.7144 123.908 91.9985 123.752L108 115" stroke="#2B2B2B" stroke-width="4" stroke-linecap="round" stroke-linejoin="round"/>
<path d="M135.208 100.712H129.15V103.988H134.87V108.304H129.15V111.684H135.208V116H124.054V96.396H135.208V100.712ZM149.074 109.37C149.074 108.954 148.996 108.564 148.84 108.2C148.701 107.819 148.493 107.489 148.216 107.212C147.939 106.935 147.609 106.718 147.228 106.562C146.864 106.389 146.465 106.302 146.032 106.302C145.616 106.302 145.226 106.38 144.862 106.536C144.498 106.692 144.177 106.909 143.9 107.186C143.64 107.463 143.423 107.793 143.25 108.174C143.094 108.538 143.016 108.928 143.016 109.344C143.016 109.76 143.094 110.15 143.25 110.514C143.406 110.878 143.623 111.199 143.9 111.476C144.177 111.736 144.498 111.953 144.862 112.126C145.243 112.282 145.642 112.36 146.058 112.36C146.474 112.36 146.864 112.282 147.228 112.126C147.592 111.97 147.904 111.753 148.164 111.476C148.441 111.199 148.658 110.878 148.814 110.514C148.987 110.15 149.074 109.769 149.074 109.37ZM143.146 122.656H138.44V102.662H143.146V104.144C144.151 102.879 145.521 102.246 147.254 102.246C148.207 102.246 149.091 102.437 149.906 102.818C150.738 103.182 151.457 103.685 152.064 104.326C152.671 104.967 153.139 105.721 153.468 106.588C153.815 107.455 153.988 108.382 153.988 109.37C153.988 110.358 153.815 111.277 153.468 112.126C153.139 112.975 152.671 113.721 152.064 114.362C151.475 115.003 150.773 115.506 149.958 115.87C149.143 116.234 148.259 116.416 147.306 116.416C145.642 116.416 144.255 115.844 143.146 114.7V122.656ZM161.377 102.662V116H156.671V102.662H161.377ZM156.359 97.54C156.359 97.176 156.428 96.838 156.567 96.526C156.705 96.1967 156.896 95.9107 157.139 95.668C157.381 95.4253 157.659 95.2347 157.971 95.096C158.3 94.9573 158.647 94.888 159.011 94.888C159.375 94.888 159.713 94.9573 160.025 95.096C160.354 95.2347 160.64 95.4253 160.883 95.668C161.125 95.9107 161.316 96.1967 161.455 96.526C161.593 96.838 161.663 97.176 161.663 97.54C161.663 97.904 161.593 98.2507 161.455 98.58C161.316 98.892 161.125 99.1693 160.883 99.412C160.64 99.6547 160.354 99.8453 160.025 99.984C159.713 100.123 159.375 100.192 159.011 100.192C158.647 100.192 158.3 100.123 157.971 99.984C157.659 99.8453 157.381 99.6547 157.139 99.412C156.896 99.1693 156.705 98.892 156.567 98.58C156.428 98.2507 156.359 97.904 156.359 97.54ZM168.96 109.292C168.96 109.725 169.038 110.133 169.194 110.514C169.35 110.878 169.558 111.199 169.818 111.476C170.096 111.753 170.416 111.97 170.78 112.126C171.162 112.282 171.569 112.36 172.002 112.36C172.418 112.36 172.808 112.282 173.172 112.126C173.554 111.97 173.874 111.753 174.134 111.476C174.412 111.199 174.628 110.878 174.784 110.514C174.958 110.15 175.044 109.76 175.044 109.344C175.044 108.928 174.958 108.538 174.784 108.174C174.628 107.793 174.412 107.463 174.134 107.186C173.874 106.909 173.554 106.692 173.172 106.536C172.808 106.38 172.418 106.302 172.002 106.302C171.586 106.302 171.188 106.38 170.806 106.536C170.442 106.692 170.122 106.909 169.844 107.186C169.584 107.463 169.368 107.784 169.194 108.148C169.038 108.495 168.96 108.876 168.96 109.292ZM174.888 94.42H179.62V116H174.888V114.518C173.883 115.783 172.522 116.416 170.806 116.416C169.836 116.416 168.943 116.234 168.128 115.87C167.314 115.506 166.603 115.003 165.996 114.362C165.39 113.721 164.913 112.967 164.566 112.1C164.237 111.233 164.072 110.297 164.072 109.292C164.072 108.339 164.228 107.437 164.54 106.588C164.87 105.721 165.329 104.967 165.918 104.326C166.508 103.685 167.21 103.182 168.024 102.818C168.856 102.437 169.766 102.246 170.754 102.246C172.418 102.246 173.796 102.827 174.888 103.988V94.42ZM187.191 109.292C187.191 109.725 187.269 110.133 187.425 110.514C187.581 110.878 187.789 111.199 188.049 111.476C188.326 111.753 188.647 111.97 189.011 112.126C189.392 112.282 189.8 112.36 190.233 112.36C190.649 112.36 191.039 112.282 191.403 112.126C191.784 111.97 192.105 111.753 192.365 111.476C192.642 111.199 192.859 110.878 193.015 110.514C193.188 110.15 193.275 109.76 193.275 109.344C193.275 108.928 193.188 108.538 193.015 108.174C192.859 107.793 192.642 107.463 192.365 107.186C192.105 106.909 191.784 106.692 191.403 106.536C191.039 106.38 190.649 106.302 190.233 106.302C189.8 106.302 189.392 106.38 189.011 106.536C188.647 106.692 188.326 106.909 188.049 107.186C187.789 107.463 187.581 107.784 187.425 108.148C187.269 108.495 187.191 108.876 187.191 109.292ZM193.119 102.662H197.851V116H193.119V114.518C192.114 115.783 190.753 116.416 189.037 116.416C188.066 116.416 187.174 116.243 186.359 115.896C185.544 115.532 184.834 115.029 184.227 114.388C183.62 113.747 183.144 112.993 182.797 112.126C182.468 111.259 182.303 110.315 182.303 109.292C182.303 108.339 182.468 107.437 182.797 106.588C183.126 105.721 183.586 104.967 184.175 104.326C184.764 103.685 185.466 103.182 186.281 102.818C187.096 102.437 187.997 102.246 188.985 102.246C190.649 102.246 192.027 102.827 193.119 103.988V102.662ZM206.143 114.18L199.695 102.662H205.155L208.717 109.5L212.175 102.662H217.583L206.871 122.656H201.593L206.143 114.18Z" fill="#2B2B2B"/>
</svg>
